<svg width="160mm" height="332.814" viewBox="0 0 160 88.057" xml:space="preserve" xmlns:xlink="http://www.w3.org/1999/xlink" xmlns="http://www.w3.org/2000/svg"><g transform="translate(81.865 -86.496)"><path fill="#1d3b3b" id="c" style="stroke-width:.124425" d="M-7.629 144.983h30.427v5.292H-7.629z"/><g transform="translate(100.791 -299.047)" style="display:inline"><path style="fill:#e49c2e;stroke-width:.25181" d="M-137.846 395.16h5.292v69.5h-5.292z"/><rect x="-153.721" y="394.631" width="37.042" height="2.855" rx="0" style="fill:#e49c2e;stroke-width:.265524"/><rect x="-153.721" y="395.756" width="37.042" height="2.855" rx="1.685" style="display:inline;fill:#e49c2e;fill-opacity:1;stroke-width:.265524"/><rect x="-153.721" y="391.417" width="37.042" height="5.354" rx="1.685" style="display:inline;fill:#1d3b3b;fill-opacity:1;stroke-width:.363618"/><rect x="-150.771" y="407.086" width="31.141" height="3.705" rx="2.18" style="fill:#e49c2e;stroke-width:.277352"/><rect x="-148.429" y="426.381" width="26.458" height="3" rx="1.852" style="fill:#e49c2e;stroke-width:.230036"/><rect x="-148.429" y="448.497" width="26.458" height="3" rx="1.852" style="fill:#e49c2e;stroke-width:.230036"/><rect x="-148.429" y="456.014" width="26.458" height="3" rx="1.852" style="fill:#e49c2e;stroke-width:.230036"/></g><path d="M-83.594 141.355c21.166 18.521 13.229-7.937 31.75-5.291" stroke="#6bbfc9" id="b" style="fill:none;stroke:#9e79aa;stroke-width:3;stroke-dasharray:none;stroke-opacity:1"/><path d="M-83.494 124.492c10.918 17.545 23.957-7.715 34.025 3.976" stroke="#e49c2e" id="j" style="fill:none;stroke-width:3;stroke-dasharray:none"/><g transform="translate(5.198 -316.95)"><rect x="-59.45" y="432.533" width="39.688" height="31.75" rx="2.117" fill="#1d3b3b" style="stroke-width:.264583"/><rect x="-56.804" y="435.179" width="34.396" height="26.458" rx="1.058" fill="#f4e1b2" style="stroke-width:.264583"/></g><rect x="-12.259" y="115.584" width="39.688" height="31.75" rx="2.646" fill="#f4e1b2" id="d" style="stroke-width:.289835"/><path fill="#1d3b3b" style="stroke-width:.265163" d="M-8.482 119.58h32.133v22.757H-8.482z"/><rect x="-12.259" y="148.951" width="39.688" height="15.875" fill="#f4e1b2" id="e" style="stroke-width:.264583" ry="3.06"/><path fill="#1d3b3b" id="f" style="stroke-width:.264583" d="M-6.967 152.92h26.458v2.646H-6.967z"/><g style="display:inline"><g transform="matrix(.84034 0 0 .84034 -103.461 27.73)"><path style="fill:none;fill-opacity:1;fill-rule:evenodd;stroke:#e49c2e;stroke-width:1;stroke-dasharray:none;stroke-opacity:1" d="M76.197 98.5v11.626l-.024-.735"/><circle style="fill:none;fill-opacity:1;fill-rule:evenodd;stroke:#e49c2e;stroke-width:.699928;stroke-dasharray:none;stroke-opacity:1" cx="74.613" cy="104.06" r="1.65"/></g><g transform="matrix(.84034 0 0 .84034 -108.689 27.73)"><path style="fill:none;fill-opacity:1;fill-rule:evenodd;stroke:#e49c2e;stroke-width:1;stroke-dasharray:none;stroke-opacity:1" d="M76.197 98.5v11.626l-.024-.735"/><circle style="fill:none;fill-opacity:1;fill-rule:evenodd;stroke:#e49c2e;stroke-width:.699928;stroke-dasharray:none;stroke-opacity:1" cx="74.613" cy="104.06" r="1.65"/></g><g transform="matrix(-.84034 0 0 .84034 33.48 27.73)"><path style="fill:none;fill-opacity:1;fill-rule:evenodd;stroke:#e49c2e;stroke-width:1;stroke-dasharray:none;stroke-opacity:1" d="M76.197 98.5v11.626l-.024-.735"/><circle style="fill:none;fill-opacity:1;fill-rule:evenodd;stroke:#e49c2e;stroke-width:.699928;stroke-dasharray:none;stroke-opacity:1" cx="74.613" cy="104.06" r="1.65"/></g><g transform="matrix(-.84034 0 0 .84034 38.707 27.635)"><path style="fill:none;fill-opacity:1;fill-rule:evenodd;stroke:#e49c2e;stroke-width:1;stroke-dasharray:none;stroke-opacity:1" d="M76.197 98.5v11.626l-.024-.735"/><circle style="fill:none;fill-opacity:1;fill-rule:evenodd;stroke:#e49c2e;stroke-width:.699928;stroke-dasharray:none;stroke-opacity:1" cx="74.613" cy="104.06" r="1.65"/></g></g><path fill="#1d3b3b" id="g" style="stroke-width:.264583" d="M-6.967 158.212H8.908v2.646H-6.967z"/><circle cx="22.137" cy="159.535" r="1.323" fill="#1d3b3b" id="h" style="stroke-width:.264583"/><g transform="rotate(14.657 -9.944 -326.83)"><path d="M32.205 122.22c13.23-13.228 21.167 13.23 31.75 5.293" stroke="#f4e1b2" id="a" style="fill:none;stroke:#507877;stroke-width:3;stroke-dasharray:none;stroke-opacity:1"/><text xml:space="preserve" style="font-style:normal;font-variant:normal;font-weight:400;font-stretch:normal;font-size:3.52778px;font-family:Helvetica;-inkscape-font-specification:Helvetica;letter-spacing:.264583px;word-spacing:.00529167px;fill:#fff;fill-opacity:1;fill-rule:evenodd;stroke:#1d3b3b;stroke-width:3;stroke-dasharray:none;stroke-opacity:1" transform="translate(-.264 1.41)"><textPath xlink:href="#a" style="font-style:normal;font-variant:normal;font-weight:700;font-stretch:normal;font-family:Helvetica;-inkscape-font-specification:'Helvetica Bold';fill:#fff;stroke:none">    X    Y    X    Y</textPath></text></g><text xml:space="preserve" style="font-style:normal;font-variant:normal;font-weight:400;font-stretch:normal;font-size:3.52778px;font-family:Arial;-inkscape-font-specification:Arial;letter-spacing:.264583px;word-spacing:.00529167px;fill:#fff;fill-rule:evenodd;stroke:none;stroke-width:3;stroke-dasharray:none;stroke-opacity:1" transform="translate(.149 1.554)"><textPath xlink:href="#b" style="font-style:normal;font-variant:normal;font-weight:700;font-stretch:normal;font-size:3.52778px;font-family:Helvetica;-inkscape-font-specification:'Helvetica Bold';fill:#fff">  X    Z    Y    I</textPath></text><use xlink:href="#c"/><g transform="translate(-104.292 -317.456)"><rect x="-92.504" y="483.07" width="235.875" height="7.983" rx="3.764" ry="3.992" fill="#1d3b3b" stroke="#6bbfc9" stroke-width="1.058" style="stroke:#507877;stroke-width:1.9123;stroke-dasharray:none;stroke-opacity:1"/><circle cx="-87.339" cy="487.062" r="1.587" style="fill:#f4e1b2;stroke-width:.264583"/><circle cx="-74.11" cy="487.062" r="1.587" style="fill:#f4e1b2;stroke-width:.264583"/><circle cx="-60.881" cy="487.062" r="1.587" style="fill:#f4e1b2;stroke-width:.264583"/><circle cx="-47.652" cy="487.062" r="1.587" style="fill:#f4e1b2;stroke-width:.264583"/><circle cx="-34.423" cy="487.062" r="1.587" style="fill:#f4e1b2;stroke-width:.264583"/><circle cx="-21.194" cy="487.062" r="1.587" style="fill:#f4e1b2;stroke-width:.264583"/><circle cx="-7.964" cy="487.062" r="1.587" style="fill:#f4e1b2;stroke-width:.264583"/><circle cx="5.265" cy="487.062" r="1.587" style="fill:#f4e1b2;stroke-width:.264583"/><circle cx="18.494" cy="487.062" r="1.587" style="fill:#f4e1b2;stroke-width:.264583"/><circle cx="31.723" cy="487.062" r="1.587" style="fill:#f4e1b2;stroke-width:.264583"/><circle cx="44.952" cy="487.062" r="1.587" style="fill:#f4e1b2;stroke-width:.264583"/><circle cx="58.181" cy="487.062" r="1.587" style="fill:#f4e1b2;stroke-width:.264583"/><circle cx="71.411" cy="487.062" r="1.587" style="fill:#f4e1b2;stroke-width:.264583"/><circle cx="84.64" cy="487.062" r="1.587" style="fill:#f4e1b2;stroke-width:.264583"/><circle cx="97.869" cy="487.062" r="1.587" style="fill:#f4e1b2;stroke-width:.264583"/><circle cx="111.098" cy="487.062" r="1.587" style="fill:#f4e1b2;stroke-width:.264583"/><circle cx="124.327" cy="487.062" r="1.587" style="fill:#f4e1b2;stroke-width:.264583"/><circle cx="137.556" cy="487.062" r="1.587" style="fill:#f4e1b2;stroke-width:.264583"/></g><path d="M-84.668 139.115c14.941-8.83 18.628-.558 33.692-7.845" stroke="#9e79aa" id="i" style="display:inline;fill:none;stroke:#e49c2e;stroke-width:3;stroke-dasharray:none;stroke-opacity:1"/><g transform="translate(-115.555 .576)"><rect style="fill:#e49c2e;fill-opacity:1;fill-rule:evenodd;stroke:none;stroke-width:.589;stroke-opacity:1" width="8.46" height="2.774" x="100.133" y="131.476" ry=".139"/><rect style="fill:#9e79aa;fill-opacity:1;fill-rule:evenodd;stroke:none;stroke-width:.589;stroke-opacity:1" width="8.46" height="2.774" x="100.152" y="125.929" ry=".139"/><rect style="fill:#507877;fill-opacity:1;fill-rule:evenodd;stroke:none;stroke-width:.589;stroke-opacity:1" width="8.46" height="2.774" x="100.133" y="128.703" ry=".139"/></g><g style="display:inline"><g style="display:inline"><path fill="#e1b343" d="M35.74 126.121h1.978v6.011h-1.977z"/><path fill="#56a59b" d="M35.74 132.132h1.978v6.012h-1.977z"/><path fill="#e1b343" d="M55.514 126.121h1.978v6.011h-1.978z"/><path fill="#8e7d9d" d="M55.514 132.132h1.978v6.012h-1.978z"/><path fill="#e1b343" d="M75.288 126.121h1.978v6.011h-1.978z"/><path fill="#56a59b" d="M75.288 132.132h1.978v6.012h-1.978z"/><path fill="#e1b343" d="M95.062 126.121h1.978v6.011h-1.978z"/><path fill="#8e7d9d" d="M95.062 132.132h1.978v6.012h-1.978z"/><path fill="#e1b343" d="M114.836 126.121h1.977v6.011h-1.977z"/><path fill="#56a59b" d="M114.836 132.132h1.977v6.012h-1.977z"/><path fill="#e1b343" d="M134.61 126.121h1.977v6.011h-1.977z"/><path fill="#8e7d9d" d="M134.61 132.132h1.977v6.012h-1.977z"/></g><path fill="#e1b343" d="M31.5 124.848h1.977v7.59h-1.978z"/><path fill="#56a59b" style="fill:#8e7d9d;fill-opacity:1" d="M50 100h10v30H50z" transform="matrix(.19774 0 0 .25303 21.612 107.135)"/><path fill="#e1b343" d="M51.273 124.848h1.978v7.59h-1.978z"/><path fill="#8e7d9d" d="M51.273 132.439h1.978v7.59h-1.978z"/><path fill="#e1b343" style="fill:#56a59b;fill-opacity:1" d="M250 70h10v30h-10z" transform="matrix(.19774 0 0 .25303 21.612 107.135)"/><path fill="#56a59b" style="fill:#e1b343;fill-opacity:1" d="M250 100h10v30h-10z" transform="matrix(.19774 0 0 .25303 21.612 107.135)"/><path fill="#e1b343" d="M90.82 124.848h1.978v7.59h-1.977z"/><path fill="#8e7d9d" d="M90.82 132.439h1.978v7.59h-1.977z"/><path fill="#e1b343" d="M110.595 124.848h1.977v7.59h-1.977z"/><path fill="#56a59b" d="M110.595 132.439h1.977v7.59h-1.977z"/><path fill="#e1b343" d="M130.369 124.848h1.977v7.59h-1.977z"/><path fill="#8e7d9d" d="M130.369 132.439h1.977v7.59h-1.977z"/><g><path fill="#e1b343" d="M27.043 138.226h1.977v-6.01h-1.977z"/><path fill="#56a59b" d="M27.043 132.215h1.977v-6.011h-1.977z"/><path fill="#e1b343" d="M46.816 138.226h1.978v-6.01h-1.978z"/><path fill="#8e7d9d" style="fill:#56a59b;fill-opacity:1" transform="matrix(.19774 0 0 -.20037 17.156 112.178)" d="M150-100h10v30h-10z"/><path fill="#e1b343" style="fill:#8e7d9d;fill-opacity:1" d="M250 70h10v30h-10z" transform="matrix(.19774 0 0 .20037 17.156 112.178)"/><path fill="#56a59b" d="M66.59 132.215h1.978v6.011H66.59z"/><path fill="#e1b343" d="M86.364 126.204h1.977v6.011h-1.977z"/><path fill="#8e7d9d" d="M86.364 132.215h1.977v6.011h-1.977z"/><path fill="#e1b343" d="M106.138 126.204h1.977v6.011h-1.977z"/><path fill="#56a59b" d="M106.138 132.215h1.977v6.011h-1.977z"/><path fill="#e1b343" d="M125.912 126.204h1.977v6.011h-1.977z"/><path fill="#8e7d9d" d="M125.912 132.215h1.977v6.011h-1.977z"/></g><path style="display:inline;fill:none;fill-opacity:1;stroke:#1d3b3b;stroke-width:3;stroke-dasharray:none;stroke-opacity:1" d="M253.258 79.228c6.615 13.23 19.844 13.23 26.459 0C286.33 66 299.56 66 306.175 79.228c6.614 13.23 19.844 13.23 26.458 0 6.615-13.229 19.844-13.229 26.459 0 6.614 13.23 19.843 13.23 26.458 0 6.614-13.229 19.844-13.229 26.458 0m-158.75 0c6.615-13.229 19.844-13.229 26.459 0 6.614 13.23 19.843 13.23 26.458 0 6.614-13.229 19.844-13.229 26.458 0 6.615 13.23 19.844 13.23 26.459 0 6.614-13.229 19.843-13.229 26.458 0 6.614 13.23 19.844 13.23 26.458 0" transform="matrix(.74736 0 0 .7573 -166.8 72.132)"/></g><g transform="matrix(.95265 0 0 .84518 -111.398 56.496)"><path style="fill:none;fill-opacity:1;fill-rule:evenodd;stroke:#e49c2e;stroke-width:1;stroke-dasharray:none;stroke-opacity:1" d="M76.197 98.5v11.626l-.024-.735"/><circle style="fill:none;fill-opacity:1;fill-rule:evenodd;stroke:#e49c2e;stroke-width:.699928;stroke-dasharray:none;stroke-opacity:1" cx="74.613" cy="104.06" r="1.65"/></g><g transform="matrix(.95265 0 0 .84518 -117.324 56.496)"><path style="fill:none;fill-opacity:1;fill-rule:evenodd;stroke:#e49c2e;stroke-width:1;stroke-dasharray:none;stroke-opacity:1" d="M76.197 98.5v11.626l-.024-.735"/><circle style="fill:none;fill-opacity:1;fill-rule:evenodd;stroke:#e49c2e;stroke-width:.699928;stroke-dasharray:none;stroke-opacity:1" cx="74.613" cy="104.06" r="1.65"/></g><g transform="matrix(-.95265 0 0 .84518 43.844 56.496)"><path style="fill:none;fill-opacity:1;fill-rule:evenodd;stroke:#e49c2e;stroke-width:1;stroke-dasharray:none;stroke-opacity:1" d="M76.197 98.5v11.626l-.024-.735"/><circle style="fill:none;fill-opacity:1;fill-rule:evenodd;stroke:#e49c2e;stroke-width:.699928;stroke-dasharray:none;stroke-opacity:1" cx="74.613" cy="104.06" r="1.65"/></g><g transform="matrix(-.95265 0 0 .84518 49.77 56.4)"><path style="fill:none;fill-opacity:1;fill-rule:evenodd;stroke:#e49c2e;stroke-width:1;stroke-dasharray:none;stroke-opacity:1" d="M76.197 98.5v11.626l-.024-.735"/><circle style="fill:none;fill-opacity:1;fill-rule:evenodd;stroke:#e49c2e;stroke-width:.699928;stroke-dasharray:none;stroke-opacity:1" cx="74.613" cy="104.06" r="1.65"/></g><use xlink:href="#d"/><rect x="-8.482" y="119.58" width="32.133" height="22.757" fill="#1d3b3b" style="stroke-width:.265163" ry="1.918"/><use xlink:href="#e" transform="translate(0 -.53)"/><use xlink:href="#f"/><use xlink:href="#g"/><use xlink:href="#h"/><text xml:space="preserve" style="font-style:normal;font-variant:normal;font-weight:400;font-stretch:normal;font-size:3.52778px;font-family:Helvetica;-inkscape-font-specification:Helvetica;letter-spacing:.264583px;word-spacing:.00529167px;display:inline;fill:#fff;fill-opacity:1;fill-rule:evenodd;stroke:#1d3b3b;stroke-width:3;stroke-dasharray:none;stroke-opacity:1" transform="translate(0 1.248)"><textPath xlink:href="#i" style="font-style:normal;font-variant:normal;font-weight:700;font-stretch:normal;font-family:Helvetica;-inkscape-font-specification:'Helvetica Bold';display:inline;stroke:none">    I    X    I    X</textPath></text><text xml:space="preserve" style="font-style:normal;font-variant:normal;font-weight:400;font-stretch:normal;font-size:3.52778px;font-family:Helvetica;-inkscape-font-specification:Helvetica;letter-spacing:.264583px;word-spacing:.00529167px;display:inline;fill:#fff;fill-opacity:1;fill-rule:evenodd;stroke:none;stroke-width:3;stroke-dasharray:none;stroke-opacity:1" transform="translate(-.193 1.3)"><textPath xlink:href="#j" style="font-style:normal;font-variant:normal;font-weight:700;font-stretch:normal;font-family:Helvetica;-inkscape-font-specification:'Helvetica Bold'">         X    I    Z</textPath></text><rect x="-7.608" y="120.488" width="30.413" height="21.08" rx="2.028" fill="#f4e1b2" style="fill:none;stroke:#f4e1b2;stroke-width:.540014;stroke-dasharray:none;stroke-opacity:1"/><path style="fill:#1d3b3b;fill-opacity:1;fill-rule:evenodd;stroke:none;stroke-width:1.958" d="M-44.33 86.496h23.15"/><rect style="fill:#f4e1b2;fill-opacity:1;fill-rule:evenodd;stroke:none;stroke-width:.701958;stroke-dasharray:none;stroke-opacity:1" width="9.938" height="3.942" x="-5.649" y="122.002" ry="1.105"/><g transform="translate(-111.161 20.545)"><path d="M26.669 109.439c18.52-4.92 16.29 12.108 32.166 6.817" stroke="#9e79aa" id="k" style="display:inline;fill:none;fill-opacity:1;stroke:#507877;stroke-width:3;stroke-dasharray:none;stroke-opacity:1"/><text xml:space="preserve" style="font-style:normal;font-variant:normal;font-weight:400;font-stretch:normal;font-size:3.52778px;font-family:Helvetica;-inkscape-font-specification:Helvetica;letter-spacing:.264583px;word-spacing:.00529167px;fill:#fff;fill-opacity:1;fill-rule:evenodd;stroke:none;stroke-width:3;stroke-dasharray:none;stroke-opacity:1" transform="translate(-.482 1.157)"><textPath xlink:href="#k" style="font-style:normal;font-variant:normal;font-weight:700;font-stretch:normal;font-family:Helvetica;-inkscape-font-specification:'Helvetica Bold'">    Z    Z    Y    X</textPath></text></g><g transform="translate(5.198 -316.95)"><rect x="-59.45" y="432.533" width="39.688" height="31.75" rx="2.117" fill="#1d3b3b" style="stroke-width:.264583"/><rect x="-56.804" y="435.179" width="34.396" height="26.458" rx="1.058" fill="#f4e1b2" style="stroke-width:.264583"/></g><rect style="fill:#f4e1b2;fill-opacity:1;fill-rule:evenodd;stroke:none;stroke-width:.773762;stroke-dasharray:none;stroke-opacity:1" width="12.075" height="3.942" x="-5.6" y="126.723" ry="1.105"/><rect style="fill:#f4e1b2;fill-opacity:1;fill-rule:evenodd;stroke:none;stroke-width:.620765;stroke-dasharray:none;stroke-opacity:1" width="7.772" height="3.942" x="-5.6" y="131.445" ry="1.105"/><rect style="fill:#f4e1b2;fill-opacity:1;fill-rule:evenodd;stroke:none;stroke-width:.547132;stroke-dasharray:none;stroke-opacity:1" width="6.037" height="3.942" x="-5.6" y="136.166" ry="1.105"/><path style="fill:#1d3b3b;fill-opacity:1;fill-rule:evenodd;stroke:none;stroke-width:1;stroke-dasharray:none;stroke-opacity:1" d="m108.099 104.075-.942 1.028.313 1.36-1.27-.578-1.195.718.157-1.386-1.052-.916 1.367-.278.545-1.284.687 1.214z" transform="matrix(.94768 .06 -.06639 .85638 -89.943 32.527)"/><g transform="translate(-115.888)"><path style="fill:none;stroke:#1d3b3b;stroke-width:.910474;stroke-dasharray:none;stroke-opacity:1" d="M95.061 124.868H75.479"/><path style="fill:none;stroke:#1d3b3b;stroke-width:.98613" d="M95.061 132.8H72.09"/><path style="fill:none;stroke:#1d3b3b;stroke-width:.988701" d="M95.061 139.723H71.97"/><text xml:space="preserve" style="font-size:3.88056px;font-family:'Arial Black';-inkscape-font-specification:'Arial Black, ';letter-spacing:.264583px;word-spacing:.00529167px;fill:#1d3b3b;fill-opacity:1;fill-rule:evenodd;stroke:#507877;stroke-width:1.958" x="65.868" y="125.842"><tspan style="font-style:normal;font-variant:normal;font-weight:700;font-stretch:normal;font-family:Helvetica;-inkscape-font-specification:'Helvetica Bold';fill:#1d3b3b;fill-opacity:1;stroke:none;stroke-width:1.958" x="65.868" y="125.842">q0</tspan></text><text xml:space="preserve" style="font-size:3.88056px;font-family:'Arial Black';-inkscape-font-specification:'Arial Black, ';letter-spacing:.264583px;word-spacing:.00529167px;fill:#1d3b3b;fill-opacity:1;fill-rule:evenodd;stroke:#507877;stroke-width:1.958" x="66.02" y="133.262"><tspan style="font-style:normal;font-variant:normal;font-weight:700;font-stretch:normal;font-family:Helvetica;-inkscape-font-specification:'Helvetica Bold';fill:#1d3b3b;fill-opacity:1;stroke:none;stroke-width:1.958" x="66.02" y="133.262">q1</tspan></text><text xml:space="preserve" style="font-size:3.88056px;font-family:'Arial Black';-inkscape-font-specification:'Arial Black, ';letter-spacing:.264583px;word-spacing:.00529167px;fill:#1d3b3b;fill-opacity:1;fill-rule:evenodd;stroke:#507877;stroke-width:1.958" x="65.752" y="140.695"><tspan style="font-style:normal;font-variant:normal;font-weight:700;font-stretch:normal;font-family:Helvetica;-inkscape-font-specification:'Helvetica Bold';fill:#1d3b3b;fill-opacity:1;stroke:none;stroke-width:1.958" x="65.752" y="140.695">q2</tspan></text><rect style="fill:#f4e1b2;fill-opacity:1;fill-rule:evenodd;stroke:#1d3b3b;stroke-width:.785061;stroke-dasharray:none;stroke-opacity:1" width="5.215" height="5.215" x="72.414" y="122.053" ry=".943"/><circle style="fill:#1d3b3b;fill-opacity:1;fill-rule:evenodd;stroke:none;stroke-width:11.25;stroke-dasharray:none;stroke-opacity:1" cx="83.531" cy="124.924" r="1.5"/><circle style="fill:none;fill-opacity:1;fill-rule:evenodd;stroke:#1d3b3b;stroke-width:.910474;stroke-dasharray:none;stroke-opacity:1" cx="83.576" cy="132.626" r="2.598"/><circle style="fill:none;fill-opacity:1;fill-rule:evenodd;stroke:#1d3b3b;stroke-width:.910474;stroke-dasharray:none;stroke-opacity:1" cx="88.942" cy="139.579" r="2.598"/><circle style="fill:#1d3b3b;fill-opacity:1;fill-rule:evenodd;stroke:none;stroke-width:11.25;stroke-dasharray:none;stroke-opacity:1" cx="89.006" cy="124.914" r="1.5"/><path style="fill:none;stroke:#1d3b3b;stroke-width:.658926" d="M83.58 135.007v-10.256"/><path style="fill:none;stroke:#1d3b3b;stroke-width:.846102" d="M88.95 125.168v16.911"/><path style="fill:#507877;fill-opacity:1;stroke:none;stroke-width:.115215;stroke-linecap:butt;stroke-linejoin:miter;stroke-miterlimit:10.433;stroke-dasharray:none;stroke-dashoffset:0;stroke-opacity:1" d="M70.828 132.851h1.326a.262.262 0 0 0 .04-.004.259.259 0 0 0 .117-.061.483.483 0 0 0 .08-.08.931.931 0 0 0 .078-.112 1.628 1.628 0 0 0 .079-.14 2.858 2.858 0 0 0 .118-.258 5.513 5.513 0 0 0 .118-.309 10.286 10.286 0 0 0 .157-.47 24.564 24.564 0 0 0 .157-.508l.04-.13.04-.129a73.619 73.619 0 0 1 .157-.505 17.774 17.774 0 0 1 .157-.463 7.822 7.822 0 0 1 .118-.301 3.935 3.935 0 0 1 .118-.25 1.907 1.907 0 0 1 .118-.188.813.813 0 0 1 .079-.088.417.417 0 0 1 .079-.057.227.227 0 0 1 .078-.025.13.13 0 0 1 .04 0 .275.275 0 0 1 .039.008.274.274 0 0 1 .079.041.536.536 0 0 1 .118.121 1.115 1.115 0 0 1 .078.119 1.907 1.907 0 0 1 .118.23 3.935 3.935 0 0 1 .119.285 7.528 7.528 0 0 1 .157.447 17.053 17.053 0 0 1 .157.497 71.729 71.729 0 0 1 .08.258l.038.13a109.396 109.396 0 0 0 .158.508 19.955 19.955 0 0 0 .157.47 8.247 8.247 0 0 0 .158.4 3.405 3.405 0 0 0 .118.24 1.699 1.699 0 0 0 .078.126.98.98 0 0 0 .08.096.504.504 0 0 0 .078.065.297.297 0 0 0 .079.033.175.175 0 0 0 .039.004h1.12"/><path style="fill:#e49c2e;fill-opacity:1;stroke:none;stroke-width:.0922864;stroke-linecap:butt;stroke-linejoin:miter;stroke-miterlimit:10.433;stroke-dasharray:none;stroke-dashoffset:0;stroke-opacity:1" d="M71.112 139.743h1.03l.03-.003a.166.166 0 0 0 .06-.027.314.314 0 0 0 .062-.054.56.56 0 0 0 .061-.08 1.115 1.115 0 0 0 .092-.164 2.479 2.479 0 0 0 .091-.214 4.705 4.705 0 0 0 .122-.348 10.118 10.118 0 0 0 .123-.398 25.778 25.778 0 0 0 .091-.318l.03-.107.031-.107a59.158 59.158 0 0 1 .153-.518 11.575 11.575 0 0 1 .153-.452 4.09 4.09 0 0 1 .122-.285 1.61 1.61 0 0 1 .091-.156.689.689 0 0 1 .061-.073l.03-.027c.011-.007.021-.015.031-.02.01-.006.02-.01.03-.014.011-.003.021-.006.031-.007a.078.078 0 0 1 .031 0c.01.002.02.003.03.007a.283.283 0 0 1 .092.06.46.46 0 0 1 .061.074.918.918 0 0 1 .092.156 2.237 2.237 0 0 1 .091.206 4.363 4.363 0 0 1 .123.34 9.665 9.665 0 0 1 .122.394 23.557 23.557 0 0 1 .06.209l.031.106.03.107.031.107.03.107a37.488 37.488 0 0 0 .153.514 12.813 12.813 0 0 0 .123.362 4.705 4.705 0 0 0 .122.295 1.802 1.802 0 0 0 .091.165.802.802 0 0 0 .061.08.393.393 0 0 0 .061.053.195.195 0 0 0 .062.027l.03.003h.869M91.026 139.607h1.029l.03-.003a.166.166 0 0 0 .061-.027.314.314 0 0 0 .061-.054.56.56 0 0 0 .061-.08 1.115 1.115 0 0 0 .092-.164 2.633 2.633 0 0 0 .122-.295 6.206 6.206 0 0 0 .122-.363 15.05 15.05 0 0 0 .153-.513l.03-.107.03-.107.031-.107a59.158 59.158 0 0 1 .153-.518 11.575 11.575 0 0 1 .153-.453 4.363 4.363 0 0 1 .091-.22 2.002 2.002 0 0 1 .092-.174.881.881 0 0 1 .092-.12c.01-.01.02-.018.03-.026.01-.007.02-.015.03-.02.01-.006.021-.01.031-.014.01-.003.02-.006.03-.007a.078.078 0 0 1 .031 0c.01.002.02.003.03.007a.283.283 0 0 1 .092.06.46.46 0 0 1 .061.074.918.918 0 0 1 .092.156 2.237 2.237 0 0 1 .092.206 4.363 4.363 0 0 1 .122.34 9.665 9.665 0 0 1 .122.393 23.557 23.557 0 0 1 .061.21l.03.106.031.107.03.107.031.107a38.485 38.485 0 0 0 .153.513 12.813 12.813 0 0 0 .122.363 4.705 4.705 0 0 0 .122.295 1.802 1.802 0 0 0 .092.164.802.802 0 0 0 .06.08.393.393 0 0 0 .062.054.195.195 0 0 0 .06.027l.031.003h.87"/><path style="fill:#e49c2e;fill-opacity:1;stroke:none;stroke-width:.0922864;stroke-linecap:butt;stroke-linejoin:miter;stroke-miterlimit:10.433;stroke-dasharray:none;stroke-dashoffset:0;stroke-opacity:1" d="M74.71 139.743h1.028l.03-.003a.166.166 0 0 0 .062-.027.314.314 0 0 0 .06-.054.56.56 0 0 0 .062-.08 1.115 1.115 0 0 0 .092-.164 2.479 2.479 0 0 0 .091-.214 4.705 4.705 0 0 0 .122-.348 10.118 10.118 0 0 0 .122-.398 25.778 25.778 0 0 0 .092-.318l.03-.107.031-.107a59.158 59.158 0 0 1 .153-.518 11.575 11.575 0 0 1 .152-.452 4.09 4.09 0 0 1 .123-.285 1.61 1.61 0 0 1 .091-.156.689.689 0 0 1 .061-.073l.03-.027c.01-.007.021-.015.031-.02.01-.006.02-.01.03-.014.011-.003.021-.006.031-.007a.078.078 0 0 1 .03 0c.011.002.021.003.031.007a.283.283 0 0 1 .092.06.46.46 0 0 1 .061.074.918.918 0 0 1 .092.156 2.237 2.237 0 0 1 .091.206 4.363 4.363 0 0 1 .122.34 9.665 9.665 0 0 1 .123.394 23.557 23.557 0 0 1 .06.209l.031.106.03.107.031.107.03.107a37.488 37.488 0 0 0 .153.514 12.813 12.813 0 0 0 .123.362 4.705 4.705 0 0 0 .122.295 1.802 1.802 0 0 0 .091.165.802.802 0 0 0 .061.08.393.393 0 0 0 .061.053.195.195 0 0 0 .061.027c.01.002.02.003.031.003h.869"/><path style="fill:#e49c2e;fill-opacity:1;stroke:none;stroke-width:.0922864;stroke-linecap:butt;stroke-linejoin:miter;stroke-miterlimit:10.433;stroke-dasharray:none;stroke-dashoffset:0;stroke-opacity:1" d="M78.062 139.743h1.029l.03-.003a.166.166 0 0 0 .062-.027.314.314 0 0 0 .06-.054.56.56 0 0 0 .062-.08 1.115 1.115 0 0 0 .091-.164 2.479 2.479 0 0 0 .092-.214 4.705 4.705 0 0 0 .122-.348 10.118 10.118 0 0 0 .122-.398 25.778 25.778 0 0 0 .092-.318l.03-.107.03-.107a59.158 59.158 0 0 1 .153-.518 11.575 11.575 0 0 1 .153-.452 4.09 4.09 0 0 1 .122-.285 1.61 1.61 0 0 1 .092-.156.689.689 0 0 1 .06-.073l.031-.027c.01-.007.02-.015.031-.02.01-.006.02-.01.03-.014.01-.003.02-.006.031-.007a.078.078 0 0 1 .03 0c.01.002.02.003.031.007a.283.283 0 0 1 .092.06.46.46 0 0 1 .06.074.918.918 0 0 1 .092.156 2.237 2.237 0 0 1 .092.206 4.363 4.363 0 0 1 .122.34 9.665 9.665 0 0 1 .122.394 23.557 23.557 0 0 1 .061.209l.03.106.031.107.03.107.031.107a37.488 37.488 0 0 0 .153.514 12.813 12.813 0 0 0 .122.362 4.705 4.705 0 0 0 .122.295 1.802 1.802 0 0 0 .092.165.802.802 0 0 0 .061.08.393.393 0 0 0 .061.053.195.195 0 0 0 .061.027l.03.003h.87"/><path style="fill:#e49c2e;fill-opacity:1;stroke:none;stroke-width:.0922864;stroke-linecap:butt;stroke-linejoin:miter;stroke-miterlimit:10.433;stroke-dasharray:none;stroke-dashoffset:0;stroke-opacity:1" d="M81.429 139.743h1.029l.03-.003a.166.166 0 0 0 .061-.027.314.314 0 0 0 .061-.054.56.56 0 0 0 .061-.08 1.115 1.115 0 0 0 .092-.164 2.479 2.479 0 0 0 .092-.214 4.705 4.705 0 0 0 .122-.348 10.118 10.118 0 0 0 .122-.398 25.778 25.778 0 0 0 .091-.318l.03-.107.031-.107a59.158 59.158 0 0 1 .153-.518 11.575 11.575 0 0 1 .153-.452 4.09 4.09 0 0 1 .122-.285 1.61 1.61 0 0 1 .091-.156.689.689 0 0 1 .062-.073l.03-.027c.01-.007.02-.015.03-.02.01-.006.021-.01.031-.014.01-.003.02-.006.03-.007a.078.078 0 0 1 .031 0c.01.002.02.003.03.007a.283.283 0 0 1 .092.06.46.46 0 0 1 .061.074.918.918 0 0 1 .092.156 2.237 2.237 0 0 1 .092.206 4.363 4.363 0 0 1 .122.34 9.665 9.665 0 0 1 .122.394 23.557 23.557 0 0 1 .06.209l.031.106.031.107.03.107.031.107a37.488 37.488 0 0 0 .153.514 12.813 12.813 0 0 0 .122.362 4.705 4.705 0 0 0 .122.295 1.802 1.802 0 0 0 .092.165.802.802 0 0 0 .06.08.393.393 0 0 0 .062.053.195.195 0 0 0 .06.027l.031.003h.869"/><path style="fill:#507877;fill-opacity:1;stroke:none;stroke-width:.115215;stroke-linecap:butt;stroke-linejoin:miter;stroke-miterlimit:10.433;stroke-dasharray:none;stroke-dashoffset:0;stroke-opacity:1" d="M74.998 132.823h1.326a.262.262 0 0 0 .04-.005.259.259 0 0 0 .118-.06.483.483 0 0 0 .079-.082.931.931 0 0 0 .078-.11 1.628 1.628 0 0 0 .079-.14 2.858 2.858 0 0 0 .118-.26 5.513 5.513 0 0 0 .118-.308 10.286 10.286 0 0 0 .157-.47 24.564 24.564 0 0 0 .158-.508l.04-.13.039-.129a73.619 73.619 0 0 1 .157-.505 17.774 17.774 0 0 1 .157-.463 7.822 7.822 0 0 1 .118-.3 3.935 3.935 0 0 1 .119-.25 1.907 1.907 0 0 1 .118-.188.813.813 0 0 1 .078-.089.417.417 0 0 1 .079-.057.227.227 0 0 1 .079-.024.13.13 0 0 1 .039 0 .275.275 0 0 1 .04.008.274.274 0 0 1 .078.04.536.536 0 0 1 .118.122 1.115 1.115 0 0 1 .079.118 1.907 1.907 0 0 1 .118.23 3.935 3.935 0 0 1 .118.285 7.528 7.528 0 0 1 .157.447 17.053 17.053 0 0 1 .158.498 71.729 71.729 0 0 1 .079.258l.039.129a109.396 109.396 0 0 0 .157.508 19.955 19.955 0 0 0 .158.47 8.247 8.247 0 0 0 .157.4 3.405 3.405 0 0 0 .118.24 1.699 1.699 0 0 0 .079.126.98.98 0 0 0 .079.097.504.504 0 0 0 .078.065.297.297 0 0 0 .079.032.175.175 0 0 0 .04.004h1.119M85.647 132.867h1.326a.262.262 0 0 0 .04-.004.259.259 0 0 0 .117-.062.483.483 0 0 0 .079-.08.931.931 0 0 0 .079-.112 1.628 1.628 0 0 0 .078-.14 2.858 2.858 0 0 0 .118-.258 5.513 5.513 0 0 0 .118-.309 10.286 10.286 0 0 0 .158-.47 24.564 24.564 0 0 0 .157-.508l.04-.13.039-.129a73.619 73.619 0 0 1 .157-.505 17.774 17.774 0 0 1 .158-.463 7.822 7.822 0 0 1 .118-.3 3.935 3.935 0 0 1 .118-.25 1.907 1.907 0 0 1 .118-.188.813.813 0 0 1 .079-.089.417.417 0 0 1 .078-.057.227.227 0 0 1 .08-.024.13.13 0 0 1 .038 0 .275.275 0 0 1 .04.008.274.274 0 0 1 .079.04.536.536 0 0 1 .118.122 1.115 1.115 0 0 1 .078.118 1.907 1.907 0 0 1 .118.23 3.935 3.935 0 0 1 .118.285 7.528 7.528 0 0 1 .158.447 17.053 17.053 0 0 1 .157.498 71.729 71.729 0 0 1 .079.258l.04.13a109.396 109.396 0 0 0 .157.508 19.955 19.955 0 0 0 .157.47 8.247 8.247 0 0 0 .158.4 3.405 3.405 0 0 0 .118.24 1.699 1.699 0 0 0 .078.126.98.98 0 0 0 .079.096.504.504 0 0 0 .079.065.297.297 0 0 0 .078.033.175.175 0 0 0 .04.004h1.12"/><path style="fill:#507877;fill-opacity:1;stroke:none;stroke-width:.115215;stroke-linecap:butt;stroke-linejoin:miter;stroke-miterlimit:10.433;stroke-dasharray:none;stroke-dashoffset:0;stroke-opacity:1" d="M89.895 132.86h1.327a.262.262 0 0 0 .039-.004.259.259 0 0 0 .118-.061.483.483 0 0 0 .079-.081.931.931 0 0 0 .078-.111 1.628 1.628 0 0 0 .08-.14 2.858 2.858 0 0 0 .117-.259 5.513 5.513 0 0 0 .118-.308 10.286 10.286 0 0 0 .158-.47 24.564 24.564 0 0 0 .157-.509l.04-.129.039-.13a73.619 73.619 0 0 1 .157-.505 17.774 17.774 0 0 1 .158-.462 7.822 7.822 0 0 1 .118-.301 3.935 3.935 0 0 1 .118-.25 1.907 1.907 0 0 1 .118-.188.813.813 0 0 1 .078-.089.417.417 0 0 1 .08-.057.227.227 0 0 1 .078-.024.13.13 0 0 1 .04 0 .275.275 0 0 1 .039.008.274.274 0 0 1 .078.041.536.536 0 0 1 .118.121 1.115 1.115 0 0 1 .079.118 1.907 1.907 0 0 1 .118.23 3.935 3.935 0 0 1 .118.285 7.528 7.528 0 0 1 .158.447 17.053 17.053 0 0 1 .157.498 71.729 71.729 0 0 1 .079.258l.039.13a109.396 109.396 0 0 0 .157.508 19.955 19.955 0 0 0 .158.47 8.247 8.247 0 0 0 .157.4 3.405 3.405 0 0 0 .118.24 1.699 1.699 0 0 0 .079.126.98.98 0 0 0 .079.096.504.504 0 0 0 .078.065.297.297 0 0 0 .08.033.175.175 0 0 0 .038.004h1.12"/><path style="fill:#9e79aa;fill-opacity:1;stroke:none;stroke-width:.115215;stroke-linecap:butt;stroke-linejoin:miter;stroke-miterlimit:10.433;stroke-dasharray:none;stroke-dashoffset:0;stroke-opacity:1" d="M89.514 124.847h1.326a.262.262 0 0 0 .04-.004.259.259 0 0 0 .117-.062.483.483 0 0 0 .08-.08.931.931 0 0 0 .078-.112 1.628 1.628 0 0 0 .079-.14 2.858 2.858 0 0 0 .118-.258 5.513 5.513 0 0 0 .118-.309 10.286 10.286 0 0 0 .157-.47 24.564 24.564 0 0 0 .157-.508l.04-.13.04-.128a73.619 73.619 0 0 1 .157-.506 17.774 17.774 0 0 1 .157-.463 7.822 7.822 0 0 1 .118-.3 3.935 3.935 0 0 1 .118-.25 1.907 1.907 0 0 1 .118-.188.813.813 0 0 1 .079-.089.417.417 0 0 1 .079-.057.227.227 0 0 1 .078-.024.13.13 0 0 1 .04 0 .275.275 0 0 1 .039.008.274.274 0 0 1 .079.04.536.536 0 0 1 .118.122 1.115 1.115 0 0 1 .078.118 1.907 1.907 0 0 1 .119.23 3.935 3.935 0 0 1 .118.285 7.528 7.528 0 0 1 .157.447 17.053 17.053 0 0 1 .157.498 71.729 71.729 0 0 1 .08.258l.038.13a109.396 109.396 0 0 0 .158.508 19.955 19.955 0 0 0 .157.47 8.247 8.247 0 0 0 .158.4 3.405 3.405 0 0 0 .118.24 1.699 1.699 0 0 0 .078.126.98.98 0 0 0 .08.096.504.504 0 0 0 .078.065.297.297 0 0 0 .079.033.175.175 0 0 0 .039.004h1.12"/></g><g style="display:inline"><path style="fill:none;fill-opacity:1;fill-rule:evenodd;stroke:#f4e1b2;stroke-width:3;stroke-dasharray:none;stroke-opacity:1" d="M259.028-312.957s.008 7.654 1.785 10.866c2.342 4.232 6.408 6.653 10.883 9.598 6.235 4.853 15.398 9.996 15.193 17.792-.179 6.816-8.437 11.647-14.082 14.837-5.646 3.19-10.71 10.771-10.71 10.771" transform="matrix(.2586 0 0 .2798 -56.267 209.513)"/><path style="display:inline;fill:none;fill-opacity:1;fill-rule:evenodd;stroke:#f4e1b2;stroke-width:3;stroke-dasharray:none;stroke-opacity:1" d="M287.122-313.046s-.008 7.654-1.785 10.866c-2.342 4.232-6.409 6.653-10.883 9.598-6.235 4.852-15.399 9.995-15.194 17.792.18 6.816 8.437 11.646 14.083 14.837 5.646 3.19 10.709 10.771 10.709 10.771" transform="matrix(.2586 0 0 .2798 -56.267 209.513)"/><path style="fill:#f4e1b2;fill-opacity:1;fill-rule:evenodd;stroke:none;stroke-width:3;stroke-dasharray:none;stroke-opacity:1" d="m198.86-248.31 1.281 3.733h19.268l1.608-3.62zM199.943-216.752l-1.083 3.612 22.157-.12-.836-3.5zM201.37-241.871l2.219 3.34 13.462.152 1.666-3.62zM201.319-209.987l3.733 3.492h9.754l3.86-3.62zM201.512-219.972l3.733-3.492H215l3.86 3.62zM201.679-187.789l3.733-3.492h9.754l3.86 3.62z" transform="matrix(.2586 0 0 .2798 -40.002 192.3)"/></g><g><g transform="translate(-115.888 -.05)"><path style="fill:none;fill-opacity:1;fill-rule:evenodd;stroke:#e49c2e;stroke-width:1;stroke-dasharray:none;stroke-opacity:1" d="M76.197 98.5v11.626l-.024-.735"/><circle style="fill:none;fill-opacity:1;fill-rule:evenodd;stroke:#e49c2e;stroke-width:.699928;stroke-dasharray:none;stroke-opacity:1" cx="74.613" cy="104.06" r="1.65"/></g><g transform="translate(-122.108 -.05)"><path style="fill:none;fill-opacity:1;fill-rule:evenodd;stroke:#e49c2e;stroke-width:1;stroke-dasharray:none;stroke-opacity:1" d="M76.197 98.5v11.626l-.024-.735"/><circle style="fill:none;fill-opacity:1;fill-rule:evenodd;stroke:#e49c2e;stroke-width:.699928;stroke-dasharray:none;stroke-opacity:1" cx="74.613" cy="104.06" r="1.65"/></g><g transform="matrix(-1 0 0 1 47.07 -.05)"><path style="fill:none;fill-opacity:1;fill-rule:evenodd;stroke:#e49c2e;stroke-width:1;stroke-dasharray:none;stroke-opacity:1" d="M76.197 98.5v11.626l-.024-.735"/><circle style="fill:none;fill-opacity:1;fill-rule:evenodd;stroke:#e49c2e;stroke-width:.699928;stroke-dasharray:none;stroke-opacity:1" cx="74.613" cy="104.06" r="1.65"/></g><g transform="matrix(-1 0 0 1 53.291 -.164)"><path style="fill:none;fill-opacity:1;fill-rule:evenodd;stroke:#e49c2e;stroke-width:1;stroke-dasharray:none;stroke-opacity:1" d="M76.197 98.5v11.626l-.024-.735"/><circle style="fill:none;fill-opacity:1;fill-rule:evenodd;stroke:#e49c2e;stroke-width:.699928;stroke-dasharray:none;stroke-opacity:1" cx="74.613" cy="104.06" r="1.65"/></g></g><g><g transform="matrix(.84566 0 0 .84566 -103.312 66.489)"><path style="fill:none;fill-opacity:1;fill-rule:evenodd;stroke:#e49c2e;stroke-width:1;stroke-dasharray:none;stroke-opacity:1" d="M76.197 98.5v11.626l-.024-.735"/><circle style="fill:none;fill-opacity:1;fill-rule:evenodd;stroke:#e49c2e;stroke-width:.699928;stroke-dasharray:none;stroke-opacity:1" cx="74.613" cy="104.06" r="1.65"/></g><g transform="matrix(.84566 0 0 .84566 -108.572 66.489)"><path style="fill:none;fill-opacity:1;fill-rule:evenodd;stroke:#e49c2e;stroke-width:1;stroke-dasharray:none;stroke-opacity:1" d="M76.197 98.5v11.626l-.024-.735"/><circle style="fill:none;fill-opacity:1;fill-rule:evenodd;stroke:#e49c2e;stroke-width:.699928;stroke-dasharray:none;stroke-opacity:1" cx="74.613" cy="104.06" r="1.65"/></g><g transform="matrix(-.84566 0 0 .84566 34.495 66.489)"><path style="fill:none;fill-opacity:1;fill-rule:evenodd;stroke:#e49c2e;stroke-width:1;stroke-dasharray:none;stroke-opacity:1" d="M76.197 98.5v11.626l-.024-.735"/><circle style="fill:none;fill-opacity:1;fill-rule:evenodd;stroke:#e49c2e;stroke-width:.699928;stroke-dasharray:none;stroke-opacity:1" cx="74.613" cy="104.06" r="1.65"/></g><g transform="matrix(-.84566 0 0 .84566 39.755 66.392)"><path style="fill:none;fill-opacity:1;fill-rule:evenodd;stroke:#e49c2e;stroke-width:1;stroke-dasharray:none;stroke-opacity:1" d="M76.197 98.5v11.626l-.024-.735"/><circle style="fill:none;fill-opacity:1;fill-rule:evenodd;stroke:#e49c2e;stroke-width:.699928;stroke-dasharray:none;stroke-opacity:1" cx="74.613" cy="104.06" r="1.65"/></g></g></g></svg>