<svg width="308.716" height="120.004" viewBox="0 0 81.681 31.751" xml:space="preserve" xmlns:xlink="http://www.w3.org/1999/xlink" xmlns="http://www.w3.org/2000/svg"><g transform="translate(59.45 -432.533)"><rect x="-59.45" y="432.533" width="39.688" height="31.75" rx="2.117" fill="#1d3b3b" style="stroke-width:.264583"/><rect x="-56.804" y="435.179" width="34.396" height="26.458" rx="1.058" fill="#f4e1b2" style="stroke-width:.264583"/></g><rect x="41.993" y=".001" width="39.688" height="31.75" rx="2.646" fill="#f4e1b2" id="a" style="stroke-width:.289835"/><path fill="#1d3b3b" style="stroke-width:.265163" d="M45.77 3.997h32.133v22.757H45.77z"/><g transform="translate(-61.303 -115.007)"><rect style="fill:#e49c2e;fill-opacity:1;fill-rule:evenodd;stroke:none;stroke-width:.589;stroke-opacity:1" width="8.46" height="2.774" x="100.133" y="131.476" ry=".139"/><rect style="fill:#9e79aa;fill-opacity:1;fill-rule:evenodd;stroke:none;stroke-width:.589;stroke-opacity:1" width="8.46" height="2.774" x="100.152" y="125.929" ry=".139"/><rect style="fill:#507877;fill-opacity:1;fill-rule:evenodd;stroke:none;stroke-width:.589;stroke-opacity:1" width="8.46" height="2.774" x="100.133" y="128.703" ry=".139"/></g><use xlink:href="#a"/><rect x="45.77" y="3.997" width="32.133" height="22.757" fill="#1d3b3b" style="stroke-width:.265163" ry="1.918"/><rect x="46.644" y="4.905" width="30.413" height="21.08" rx="2.028" fill="#f4e1b2" style="fill:none;stroke:#f4e1b2;stroke-width:.540014;stroke-dasharray:none;stroke-opacity:1"/><rect style="fill:#f4e1b2;fill-opacity:1;fill-rule:evenodd;stroke:none;stroke-width:.701958;stroke-dasharray:none;stroke-opacity:1" width="9.938" height="3.942" x="48.603" y="6.419" ry="1.105"/><g transform="translate(59.45 -432.533)"><rect x="-59.45" y="432.533" width="39.688" height="31.75" rx="2.117" fill="#1d3b3b" style="stroke-width:.264583"/><rect x="-56.804" y="435.179" width="34.396" height="26.458" rx="1.058" fill="#f4e1b2" style="stroke-width:.264583"/></g><rect style="fill:#f4e1b2;fill-opacity:1;fill-rule:evenodd;stroke:none;stroke-width:.773762;stroke-dasharray:none;stroke-opacity:1" width="12.075" height="3.942" x="48.652" y="11.14" ry="1.105"/><rect style="fill:#f4e1b2;fill-opacity:1;fill-rule:evenodd;stroke:none;stroke-width:.620765;stroke-dasharray:none;stroke-opacity:1" width="7.772" height="3.942" x="48.652" y="15.862" ry="1.105"/><rect style="fill:#f4e1b2;fill-opacity:1;fill-rule:evenodd;stroke:none;stroke-width:.547132;stroke-dasharray:none;stroke-opacity:1" width="6.037" height="3.942" x="48.652" y="20.583" ry="1.105"/><path style="fill:#1d3b3b;fill-opacity:1;fill-rule:evenodd;stroke:none;stroke-width:.903082;stroke-dasharray:none;stroke-opacity:1" d="m59.843 12.558-.961.824.206 1.183-1.165-.571-1.18.543.24-1.178-.936-.847 1.314-.156.602-1.067.57 1.08z"/><g transform="translate(-61.636 -115.583)"><path style="fill:none;stroke:#1d3b3b;stroke-width:.910474;stroke-dasharray:none;stroke-opacity:1" d="M95.061 124.868H75.479"/><path style="fill:none;stroke:#1d3b3b;stroke-width:.98613" d="M95.061 132.8H72.09"/><path style="fill:none;stroke:#1d3b3b;stroke-width:.988701" d="M95.061 139.723H71.97"/><text xml:space="preserve" style="font-size:3.88056px;font-family:'Arial Black';-inkscape-font-specification:'Arial Black, ';letter-spacing:.264583px;word-spacing:.00529167px;fill:#1d3b3b;fill-opacity:1;fill-rule:evenodd;stroke:#507877;stroke-width:1.958" x="65.868" y="125.842"><tspan style="font-style:normal;font-variant:normal;font-weight:700;font-stretch:normal;font-family:Helvetica;-inkscape-font-specification:'Helvetica Bold';fill:#1d3b3b;fill-opacity:1;stroke:none;stroke-width:1.958" x="65.868" y="125.842">q0</tspan></text><text xml:space="preserve" style="font-size:3.88056px;font-family:'Arial Black';-inkscape-font-specification:'Arial Black, ';letter-spacing:.264583px;word-spacing:.00529167px;fill:#1d3b3b;fill-opacity:1;fill-rule:evenodd;stroke:#507877;stroke-width:1.958" x="66.02" y="133.262"><tspan style="font-style:normal;font-variant:normal;font-weight:700;font-stretch:normal;font-family:Helvetica;-inkscape-font-specification:'Helvetica Bold';fill:#1d3b3b;fill-opacity:1;stroke:none;stroke-width:1.958" x="66.02" y="133.262">q1</tspan></text><text xml:space="preserve" style="font-size:3.88056px;font-family:'Arial Black';-inkscape-font-specification:'Arial Black, ';letter-spacing:.264583px;word-spacing:.00529167px;fill:#1d3b3b;fill-opacity:1;fill-rule:evenodd;stroke:#507877;stroke-width:1.958" x="65.752" y="140.695"><tspan style="font-style:normal;font-variant:normal;font-weight:700;font-stretch:normal;font-family:Helvetica;-inkscape-font-specification:'Helvetica Bold';fill:#1d3b3b;fill-opacity:1;stroke:none;stroke-width:1.958" x="65.752" y="140.695">q2</tspan></text><rect style="fill:#f4e1b2;fill-opacity:1;fill-rule:evenodd;stroke:#1d3b3b;stroke-width:.785061;stroke-dasharray:none;stroke-opacity:1" width="5.215" height="5.215" x="72.414" y="122.053" ry=".943"/><circle style="fill:#1d3b3b;fill-opacity:1;fill-rule:evenodd;stroke:none;stroke-width:11.25;stroke-dasharray:none;stroke-opacity:1" cx="83.531" cy="124.924" r="1.5"/><circle style="fill:none;fill-opacity:1;fill-rule:evenodd;stroke:#1d3b3b;stroke-width:.910474;stroke-dasharray:none;stroke-opacity:1" cx="83.576" cy="132.626" r="2.598"/><circle style="fill:none;fill-opacity:1;fill-rule:evenodd;stroke:#1d3b3b;stroke-width:.910474;stroke-dasharray:none;stroke-opacity:1" cx="88.942" cy="139.579" r="2.598"/><circle style="fill:#1d3b3b;fill-opacity:1;fill-rule:evenodd;stroke:none;stroke-width:11.25;stroke-dasharray:none;stroke-opacity:1" cx="89.006" cy="124.914" r="1.5"/><path style="fill:none;stroke:#1d3b3b;stroke-width:.658926" d="M83.58 135.007v-10.256"/><path style="fill:none;stroke:#1d3b3b;stroke-width:.846102" d="M88.95 125.168v16.911"/><path style="fill:#507877;fill-opacity:1;stroke:none;stroke-width:.115215;stroke-linecap:butt;stroke-linejoin:miter;stroke-miterlimit:10.433;stroke-dasharray:none;stroke-dashoffset:0;stroke-opacity:1" d="M70.828 132.851h1.326a.262.262 0 0 0 .04-.004.259.259 0 0 0 .117-.061.483.483 0 0 0 .08-.08.931.931 0 0 0 .078-.112 1.628 1.628 0 0 0 .079-.14 2.858 2.858 0 0 0 .118-.258 5.513 5.513 0 0 0 .118-.309 10.286 10.286 0 0 0 .157-.47 24.564 24.564 0 0 0 .157-.508l.04-.13.04-.129a73.619 73.619 0 0 1 .157-.505 17.774 17.774 0 0 1 .157-.463 7.822 7.822 0 0 1 .118-.301 3.935 3.935 0 0 1 .118-.25 1.907 1.907 0 0 1 .118-.188.813.813 0 0 1 .079-.088.417.417 0 0 1 .079-.057.227.227 0 0 1 .078-.025.13.13 0 0 1 .04 0 .275.275 0 0 1 .039.008.274.274 0 0 1 .079.041.536.536 0 0 1 .118.121 1.115 1.115 0 0 1 .078.119 1.907 1.907 0 0 1 .118.23 3.935 3.935 0 0 1 .119.285 7.528 7.528 0 0 1 .157.447 17.053 17.053 0 0 1 .157.497 71.729 71.729 0 0 1 .08.258l.038.13a109.396 109.396 0 0 0 .158.508 19.955 19.955 0 0 0 .157.47 8.247 8.247 0 0 0 .158.4 3.405 3.405 0 0 0 .118.24 1.699 1.699 0 0 0 .078.126.98.98 0 0 0 .08.096.504.504 0 0 0 .078.065.297.297 0 0 0 .079.033.175.175 0 0 0 .039.004h1.12"/><path style="fill:#e49c2e;fill-opacity:1;stroke:none;stroke-width:.0922864;stroke-linecap:butt;stroke-linejoin:miter;stroke-miterlimit:10.433;stroke-dasharray:none;stroke-dashoffset:0;stroke-opacity:1" d="M71.112 139.743h1.03l.03-.003a.166.166 0 0 0 .06-.027.314.314 0 0 0 .062-.054.56.56 0 0 0 .061-.08 1.115 1.115 0 0 0 .092-.164 2.479 2.479 0 0 0 .091-.214 4.705 4.705 0 0 0 .122-.348 10.118 10.118 0 0 0 .123-.398 25.778 25.778 0 0 0 .091-.318l.03-.107.031-.107a59.158 59.158 0 0 1 .153-.518 11.575 11.575 0 0 1 .153-.452 4.09 4.09 0 0 1 .122-.285 1.61 1.61 0 0 1 .091-.156.689.689 0 0 1 .061-.073l.03-.027c.011-.007.021-.015.031-.02.01-.006.02-.01.03-.014.011-.003.021-.006.031-.007a.078.078 0 0 1 .031 0c.01.002.02.003.03.007a.283.283 0 0 1 .092.06.46.46 0 0 1 .061.074.918.918 0 0 1 .092.156 2.237 2.237 0 0 1 .091.206 4.363 4.363 0 0 1 .123.34 9.665 9.665 0 0 1 .122.394 23.557 23.557 0 0 1 .06.209l.031.106.03.107.031.107.03.107a37.488 37.488 0 0 0 .153.514 12.813 12.813 0 0 0 .123.362 4.705 4.705 0 0 0 .122.295 1.802 1.802 0 0 0 .091.165.802.802 0 0 0 .061.08.393.393 0 0 0 .061.053.195.195 0 0 0 .062.027l.03.003h.869m14.993-.136h1.029l.03-.003a.166.166 0 0 0 .061-.027.314.314 0 0 0 .061-.054.56.56 0 0 0 .061-.08 1.115 1.115 0 0 0 .092-.164 2.633 2.633 0 0 0 .122-.295 6.206 6.206 0 0 0 .122-.363 15.05 15.05 0 0 0 .153-.513l.03-.107.03-.107.031-.107a59.158 59.158 0 0 1 .153-.518 11.575 11.575 0 0 1 .153-.453 4.363 4.363 0 0 1 .091-.22 2.002 2.002 0 0 1 .092-.174.881.881 0 0 1 .092-.12c.01-.01.02-.018.03-.026.01-.007.02-.015.03-.02.01-.006.021-.01.031-.014.01-.003.02-.006.03-.007a.078.078 0 0 1 .031 0c.01.002.02.003.03.007a.283.283 0 0 1 .092.06.46.46 0 0 1 .061.074.918.918 0 0 1 .092.156 2.237 2.237 0 0 1 .092.206 4.363 4.363 0 0 1 .122.34 9.665 9.665 0 0 1 .122.393 23.557 23.557 0 0 1 .061.21l.03.106.031.107.03.107.031.107a38.485 38.485 0 0 0 .153.513 12.813 12.813 0 0 0 .122.363 4.705 4.705 0 0 0 .122.295 1.802 1.802 0 0 0 .092.164.802.802 0 0 0 .06.08.393.393 0 0 0 .062.054.195.195 0 0 0 .06.027l.031.003h.87"/><path style="fill:#e49c2e;fill-opacity:1;stroke:none;stroke-width:.0922864;stroke-linecap:butt;stroke-linejoin:miter;stroke-miterlimit:10.433;stroke-dasharray:none;stroke-dashoffset:0;stroke-opacity:1" d="M74.71 139.743h1.028l.03-.003a.166.166 0 0 0 .062-.027.314.314 0 0 0 .06-.054.56.56 0 0 0 .062-.08 1.115 1.115 0 0 0 .092-.164 2.479 2.479 0 0 0 .091-.214 4.705 4.705 0 0 0 .122-.348 10.118 10.118 0 0 0 .122-.398 25.778 25.778 0 0 0 .092-.318l.03-.107.031-.107a59.158 59.158 0 0 1 .153-.518 11.575 11.575 0 0 1 .152-.452 4.09 4.09 0 0 1 .123-.285 1.61 1.61 0 0 1 .091-.156.689.689 0 0 1 .061-.073l.03-.027c.01-.007.021-.015.031-.02.01-.006.02-.01.03-.014.011-.003.021-.006.031-.007a.078.078 0 0 1 .03 0c.011.002.021.003.031.007a.283.283 0 0 1 .092.06.46.46 0 0 1 .061.074.918.918 0 0 1 .092.156 2.237 2.237 0 0 1 .091.206 4.363 4.363 0 0 1 .122.34 9.665 9.665 0 0 1 .123.394 23.557 23.557 0 0 1 .06.209l.031.106.03.107.031.107.03.107a37.488 37.488 0 0 0 .153.514 12.813 12.813 0 0 0 .123.362 4.705 4.705 0 0 0 .122.295 1.802 1.802 0 0 0 .091.165.802.802 0 0 0 .061.08.393.393 0 0 0 .061.053.195.195 0 0 0 .061.027c.01.002.02.003.031.003h.869"/><path style="fill:#e49c2e;fill-opacity:1;stroke:none;stroke-width:.0922864;stroke-linecap:butt;stroke-linejoin:miter;stroke-miterlimit:10.433;stroke-dasharray:none;stroke-dashoffset:0;stroke-opacity:1" d="M78.062 139.743h1.029l.03-.003a.166.166 0 0 0 .062-.027.314.314 0 0 0 .06-.054.56.56 0 0 0 .062-.08 1.115 1.115 0 0 0 .091-.164 2.479 2.479 0 0 0 .092-.214 4.705 4.705 0 0 0 .122-.348 10.118 10.118 0 0 0 .122-.398 25.778 25.778 0 0 0 .092-.318l.03-.107.03-.107a59.158 59.158 0 0 1 .153-.518 11.575 11.575 0 0 1 .153-.452 4.09 4.09 0 0 1 .122-.285 1.61 1.61 0 0 1 .092-.156.689.689 0 0 1 .06-.073l.031-.027c.01-.007.02-.015.031-.02.01-.006.02-.01.03-.014.01-.003.02-.006.031-.007a.078.078 0 0 1 .03 0c.01.002.02.003.031.007a.283.283 0 0 1 .092.06.46.46 0 0 1 .06.074.918.918 0 0 1 .092.156 2.237 2.237 0 0 1 .092.206 4.363 4.363 0 0 1 .122.34 9.665 9.665 0 0 1 .122.394 23.557 23.557 0 0 1 .061.209l.03.106.031.107.03.107.031.107a37.488 37.488 0 0 0 .153.514 12.813 12.813 0 0 0 .122.362 4.705 4.705 0 0 0 .122.295 1.802 1.802 0 0 0 .092.165.802.802 0 0 0 .061.08.393.393 0 0 0 .061.053.195.195 0 0 0 .061.027l.03.003h.87"/><path style="fill:#e49c2e;fill-opacity:1;stroke:none;stroke-width:.0922864;stroke-linecap:butt;stroke-linejoin:miter;stroke-miterlimit:10.433;stroke-dasharray:none;stroke-dashoffset:0;stroke-opacity:1" d="M81.429 139.743h1.029l.03-.003a.166.166 0 0 0 .061-.027.314.314 0 0 0 .061-.054.56.56 0 0 0 .061-.08 1.115 1.115 0 0 0 .092-.164 2.479 2.479 0 0 0 .092-.214 4.705 4.705 0 0 0 .122-.348 10.118 10.118 0 0 0 .122-.398 25.778 25.778 0 0 0 .091-.318l.03-.107.031-.107a59.158 59.158 0 0 1 .153-.518 11.575 11.575 0 0 1 .153-.452 4.09 4.09 0 0 1 .122-.285 1.61 1.61 0 0 1 .091-.156.689.689 0 0 1 .062-.073l.03-.027c.01-.007.02-.015.03-.02.01-.006.021-.01.031-.014.01-.003.02-.006.03-.007a.078.078 0 0 1 .031 0c.01.002.02.003.03.007a.283.283 0 0 1 .092.06.46.46 0 0 1 .061.074.918.918 0 0 1 .092.156 2.237 2.237 0 0 1 .092.206 4.363 4.363 0 0 1 .122.34 9.665 9.665 0 0 1 .122.394 23.557 23.557 0 0 1 .06.209l.031.106.031.107.03.107.031.107a37.488 37.488 0 0 0 .153.514 12.813 12.813 0 0 0 .122.362 4.705 4.705 0 0 0 .122.295 1.802 1.802 0 0 0 .092.165.802.802 0 0 0 .06.08.393.393 0 0 0 .062.053.195.195 0 0 0 .06.027l.031.003h.869"/><path style="fill:#507877;fill-opacity:1;stroke:none;stroke-width:.115215;stroke-linecap:butt;stroke-linejoin:miter;stroke-miterlimit:10.433;stroke-dasharray:none;stroke-dashoffset:0;stroke-opacity:1" d="M74.998 132.823h1.326a.262.262 0 0 0 .04-.005.259.259 0 0 0 .118-.06.483.483 0 0 0 .079-.082.931.931 0 0 0 .078-.11 1.628 1.628 0 0 0 .079-.14 2.858 2.858 0 0 0 .118-.26 5.513 5.513 0 0 0 .118-.308 10.286 10.286 0 0 0 .157-.47 24.564 24.564 0 0 0 .158-.508l.04-.13.039-.129a73.619 73.619 0 0 1 .157-.505 17.774 17.774 0 0 1 .157-.463 7.822 7.822 0 0 1 .118-.3 3.935 3.935 0 0 1 .119-.25 1.907 1.907 0 0 1 .118-.188.813.813 0 0 1 .078-.089.417.417 0 0 1 .079-.057.227.227 0 0 1 .079-.024.13.13 0 0 1 .039 0 .275.275 0 0 1 .04.008.274.274 0 0 1 .078.04.536.536 0 0 1 .118.122 1.115 1.115 0 0 1 .079.118 1.907 1.907 0 0 1 .118.23 3.935 3.935 0 0 1 .118.285 7.528 7.528 0 0 1 .157.447 17.053 17.053 0 0 1 .158.498 71.729 71.729 0 0 1 .079.258l.039.129a109.396 109.396 0 0 0 .157.508 19.955 19.955 0 0 0 .158.47 8.247 8.247 0 0 0 .157.4 3.405 3.405 0 0 0 .118.24 1.699 1.699 0 0 0 .079.126.98.98 0 0 0 .079.097.504.504 0 0 0 .078.065.297.297 0 0 0 .079.032.175.175 0 0 0 .04.004h1.119m4.307.045h1.326a.262.262 0 0 0 .04-.004.259.259 0 0 0 .117-.062.483.483 0 0 0 .079-.08.931.931 0 0 0 .079-.112 1.628 1.628 0 0 0 .078-.14 2.858 2.858 0 0 0 .118-.258 5.513 5.513 0 0 0 .118-.309 10.286 10.286 0 0 0 .158-.47 24.564 24.564 0 0 0 .157-.508l.04-.13.039-.129a73.619 73.619 0 0 1 .157-.505 17.774 17.774 0 0 1 .158-.463 7.822 7.822 0 0 1 .118-.3 3.935 3.935 0 0 1 .118-.25 1.907 1.907 0 0 1 .118-.188.813.813 0 0 1 .079-.089.417.417 0 0 1 .078-.057.227.227 0 0 1 .08-.024.13.13 0 0 1 .038 0 .275.275 0 0 1 .04.008.274.274 0 0 1 .079.04.536.536 0 0 1 .118.122 1.115 1.115 0 0 1 .078.118 1.907 1.907 0 0 1 .118.23 3.935 3.935 0 0 1 .118.285 7.528 7.528 0 0 1 .158.447 17.053 17.053 0 0 1 .157.498 71.729 71.729 0 0 1 .079.258l.04.13a109.396 109.396 0 0 0 .157.508 19.955 19.955 0 0 0 .157.47 8.247 8.247 0 0 0 .158.4 3.405 3.405 0 0 0 .118.24 1.699 1.699 0 0 0 .078.126.98.98 0 0 0 .079.096.504.504 0 0 0 .079.065.297.297 0 0 0 .078.033.175.175 0 0 0 .04.004h1.12"/><path style="fill:#507877;fill-opacity:1;stroke:none;stroke-width:.115215;stroke-linecap:butt;stroke-linejoin:miter;stroke-miterlimit:10.433;stroke-dasharray:none;stroke-dashoffset:0;stroke-opacity:1" d="M89.895 132.86h1.327a.262.262 0 0 0 .039-.004.259.259 0 0 0 .118-.061.483.483 0 0 0 .079-.081.931.931 0 0 0 .078-.111 1.628 1.628 0 0 0 .08-.14 2.858 2.858 0 0 0 .117-.259 5.513 5.513 0 0 0 .118-.308 10.286 10.286 0 0 0 .158-.47 24.564 24.564 0 0 0 .157-.509l.04-.129.039-.13a73.619 73.619 0 0 1 .157-.505 17.774 17.774 0 0 1 .158-.462 7.822 7.822 0 0 1 .118-.301 3.935 3.935 0 0 1 .118-.25 1.907 1.907 0 0 1 .118-.188.813.813 0 0 1 .078-.089.417.417 0 0 1 .08-.057.227.227 0 0 1 .078-.024.13.13 0 0 1 .04 0 .275.275 0 0 1 .039.008.274.274 0 0 1 .078.041.536.536 0 0 1 .118.121 1.115 1.115 0 0 1 .079.118 1.907 1.907 0 0 1 .118.23 3.935 3.935 0 0 1 .118.285 7.528 7.528 0 0 1 .158.447 17.053 17.053 0 0 1 .157.498 71.729 71.729 0 0 1 .079.258l.039.13a109.396 109.396 0 0 0 .157.508 19.955 19.955 0 0 0 .158.47 8.247 8.247 0 0 0 .157.4 3.405 3.405 0 0 0 .118.24 1.699 1.699 0 0 0 .079.126.98.98 0 0 0 .079.096.504.504 0 0 0 .078.065.297.297 0 0 0 .08.033.175.175 0 0 0 .038.004h1.12"/><path style="fill:#9e79aa;fill-opacity:1;stroke:none;stroke-width:.115215;stroke-linecap:butt;stroke-linejoin:miter;stroke-miterlimit:10.433;stroke-dasharray:none;stroke-dashoffset:0;stroke-opacity:1" d="M89.514 124.847h1.326a.262.262 0 0 0 .04-.004.259.259 0 0 0 .117-.062.483.483 0 0 0 .08-.08.931.931 0 0 0 .078-.112 1.628 1.628 0 0 0 .079-.14 2.858 2.858 0 0 0 .118-.258 5.513 5.513 0 0 0 .118-.309 10.286 10.286 0 0 0 .157-.47 24.564 24.564 0 0 0 .157-.508l.04-.13.04-.128a73.619 73.619 0 0 1 .157-.506 17.774 17.774 0 0 1 .157-.463 7.822 7.822 0 0 1 .118-.3 3.935 3.935 0 0 1 .118-.25 1.907 1.907 0 0 1 .118-.188.813.813 0 0 1 .079-.089.417.417 0 0 1 .079-.057.227.227 0 0 1 .078-.024.13.13 0 0 1 .04 0 .275.275 0 0 1 .039.008.274.274 0 0 1 .079.04.536.536 0 0 1 .118.122 1.115 1.115 0 0 1 .078.118 1.907 1.907 0 0 1 .119.23 3.935 3.935 0 0 1 .118.285 7.528 7.528 0 0 1 .157.447 17.053 17.053 0 0 1 .157.498 71.729 71.729 0 0 1 .08.258l.038.13a109.396 109.396 0 0 0 .158.508 19.955 19.955 0 0 0 .157.47 8.247 8.247 0 0 0 .158.4 3.405 3.405 0 0 0 .118.24 1.699 1.699 0 0 0 .078.126.98.98 0 0 0 .08.096.504.504 0 0 0 .078.065.297.297 0 0 0 .079.033.175.175 0 0 0 .039.004h1.12"/></g><g style="display:inline"><path style="fill:none;fill-opacity:1;fill-rule:evenodd;stroke:#f4e1b2;stroke-width:3;stroke-dasharray:none;stroke-opacity:1" d="M259.028-312.957s.008 7.654 1.785 10.866c2.342 4.232 6.408 6.653 10.883 9.598 6.235 4.853 15.398 9.996 15.193 17.792-.179 6.816-8.437 11.647-14.082 14.837-5.646 3.19-10.71 10.771-10.71 10.771" transform="matrix(.2586 0 0 .2798 -2.015 93.93)"/><path style="display:inline;fill:none;fill-opacity:1;fill-rule:evenodd;stroke:#f4e1b2;stroke-width:3;stroke-dasharray:none;stroke-opacity:1" d="M287.122-313.046s-.008 7.654-1.785 10.866c-2.342 4.232-6.409 6.653-10.883 9.598-6.235 4.852-15.399 9.995-15.194 17.792.18 6.816 8.437 11.646 14.083 14.837 5.646 3.19 10.709 10.771 10.709 10.771" transform="matrix(.2586 0 0 .2798 -2.015 93.93)"/><path style="fill:#f4e1b2;fill-opacity:1;fill-rule:evenodd;stroke:none;stroke-width:3;stroke-dasharray:none;stroke-opacity:1" d="m198.86-248.31 1.281 3.733h19.268l1.608-3.62zm1.083 31.558-1.083 3.612 22.157-.12-.836-3.5zm1.427-25.119 2.219 3.34 13.462.152 1.666-3.62zm-.051 31.884 3.733 3.492h9.754l3.86-3.62zm.193-9.985 3.733-3.492H215l3.86 3.62zm.167 32.183 3.733-3.492h9.754l3.86 3.62z" transform="matrix(.2586 0 0 .2798 14.25 76.717)"/></g></svg>